<svg width="40" height="40" viewBox="0 0 40 40" fill="none" xmlns="http://www.w3.org/2000/svg">
<circle cx="19.8448" cy="19.8448" r="19.845" fill="#D7EAFF"/>
<g clip-path="url(#clip0_26_588)">
<path d="M15.2036 15.1255H15.2118M15.2036 24.9693H15.2118M13.563 11.8443H26.688C27.5941 11.8443 28.3286 12.5788 28.3286 13.4849V16.7661C28.3286 17.6722 27.5941 18.4068 26.688 18.4068H13.563C12.6569 18.4068 11.9224 17.6722 11.9224 16.7661V13.4849C11.9224 12.5788 12.6569 11.8443 13.563 11.8443ZM13.563 21.688H26.688C27.5941 21.688 28.3286 22.4225 28.3286 23.3286V26.6099C28.3286 27.516 27.5941 28.2505 26.688 28.2505H13.563C12.6569 28.2505 11.9224 27.516 11.9224 26.6099V23.3286C11.9224 22.4225 12.6569 21.688 13.563 21.688Z" stroke="#1873DE" stroke-width="1.64062" stroke-linecap="round" stroke-linejoin="round"/>
</g>
<defs>
<clipPath id="clip0_26_588">
<rect width="19.6875" height="19.6875" fill="white" transform="translate(10.282 10.2039)"/>
</clipPath>
</defs>
</svg>
